<mxfile host="app.diagrams.net" modified="2022-02-19T06:58:46.667Z" agent="5.0 (Windows NT 6.3; Win64; x64) AppleWebKit/537.36 (KHTML, like Gecko) Chrome/98.0.4758.102 Safari/537.36" etag="Kfoh9cadtauCZb9cp_kQ" version="16.6.1" type="github">
  <diagram name="Page-1" id="12e1b939-464a-85fe-373e-61e167be1490">
    <mxGraphModel dx="2076" dy="1048" grid="1" gridSize="10" guides="1" tooltips="1" connect="1" arrows="1" fold="1" page="1" pageScale="1.5" pageWidth="1169" pageHeight="826" background="#FFFFFF" math="0" shadow="1">
      <root>
        <mxCell id="0" />
        <mxCell id="1" parent="0" />
        <mxCell id="60da8b9f42644d3a-2" value="" style="whiteSpace=wrap;html=1;rounded=1;shadow=0;strokeWidth=8;fontSize=20;align=center;fillColor=#FED217;strokeColor=#FFFFFF;" parent="1" vertex="1">
          <mxGeometry x="316" y="405" width="280" height="430" as="geometry" />
        </mxCell>
        <mxCell id="60da8b9f42644d3a-3" value="ATTRACT" style="text;html=1;strokeColor=none;fillColor=none;align=center;verticalAlign=middle;whiteSpace=wrap;rounded=0;shadow=0;fontSize=27;fontColor=#FFFFFF;fontStyle=1" parent="1" vertex="1">
          <mxGeometry x="316" y="425" width="280" height="60" as="geometry" />
        </mxCell>
        <mxCell id="60da8b9f42644d3a-4" value="Blog&lt;div&gt;Keywords&lt;/div&gt;&lt;div&gt;Social Media&lt;/div&gt;" style="text;html=1;strokeColor=none;fillColor=none;align=center;verticalAlign=middle;whiteSpace=wrap;rounded=0;shadow=0;fontSize=14;fontColor=#FFFFFF;" parent="1" vertex="1">
          <mxGeometry x="316" y="725" width="280" height="90" as="geometry" />
        </mxCell>
        <mxCell id="60da8b9f42644d3a-6" value="" style="line;strokeWidth=2;html=1;rounded=0;shadow=0;fontSize=27;align=center;fillColor=none;strokeColor=#FFFFFF;" parent="1" vertex="1">
          <mxGeometry x="336" y="485" width="240" height="10" as="geometry" />
        </mxCell>
        <mxCell id="60da8b9f42644d3a-7" value="" style="line;strokeWidth=2;html=1;rounded=0;shadow=0;fontSize=27;align=center;fillColor=none;strokeColor=#FFFFFF;" parent="1" vertex="1">
          <mxGeometry x="336" y="705" width="240" height="10" as="geometry" />
        </mxCell>
        <mxCell id="60da8b9f42644d3a-8" value="STRANGERS" style="ellipse;whiteSpace=wrap;html=1;rounded=0;shadow=0;strokeWidth=6;fontSize=14;align=center;fillColor=#BFB4A9;strokeColor=#FFFFFF;fontColor=#FFFFFF;" parent="1" vertex="1">
          <mxGeometry x="259" y="545" width="115" height="115" as="geometry" />
        </mxCell>
        <mxCell id="60da8b9f42644d3a-9" value="" style="html=1;shadow=0;dashed=0;align=center;verticalAlign=middle;shape=mxgraph.arrows2.stylisedArrow;dy=0.6;dx=40;notch=15;feather=0.4;rounded=0;strokeWidth=1;fontSize=27;strokeColor=none;fillColor=#fff2cc;" parent="1" vertex="1">
          <mxGeometry x="406" y="573" width="100" height="60" as="geometry" />
        </mxCell>
        <mxCell id="60da8b9f42644d3a-17" value="" style="whiteSpace=wrap;html=1;rounded=1;shadow=0;strokeWidth=8;fontSize=20;align=center;fillColor=#FFC001;strokeColor=#FFFFFF;" parent="1" vertex="1">
          <mxGeometry x="596" y="405" width="280" height="430" as="geometry" />
        </mxCell>
        <mxCell id="60da8b9f42644d3a-18" value="CONVERT" style="text;html=1;strokeColor=none;fillColor=none;align=center;verticalAlign=middle;whiteSpace=wrap;rounded=0;shadow=0;fontSize=27;fontColor=#FFFFFF;fontStyle=1" parent="1" vertex="1">
          <mxGeometry x="596" y="425" width="280" height="60" as="geometry" />
        </mxCell>
        <mxCell id="60da8b9f42644d3a-19" value="Forms&lt;div&gt;Calls-to-Action&lt;/div&gt;&lt;div&gt;Landing Pages&lt;/div&gt;" style="text;html=1;strokeColor=none;fillColor=none;align=center;verticalAlign=middle;whiteSpace=wrap;rounded=0;shadow=0;fontSize=14;fontColor=#FFFFFF;" parent="1" vertex="1">
          <mxGeometry x="596" y="725" width="280" height="90" as="geometry" />
        </mxCell>
        <mxCell id="60da8b9f42644d3a-20" value="" style="line;strokeWidth=2;html=1;rounded=0;shadow=0;fontSize=27;align=center;fillColor=none;strokeColor=#FFFFFF;" parent="1" vertex="1">
          <mxGeometry x="616" y="485" width="240" height="10" as="geometry" />
        </mxCell>
        <mxCell id="60da8b9f42644d3a-21" value="" style="line;strokeWidth=2;html=1;rounded=0;shadow=0;fontSize=27;align=center;fillColor=none;strokeColor=#FFFFFF;" parent="1" vertex="1">
          <mxGeometry x="616" y="705" width="240" height="10" as="geometry" />
        </mxCell>
        <mxCell id="60da8b9f42644d3a-22" value="VISITORS" style="ellipse;whiteSpace=wrap;html=1;rounded=0;shadow=0;strokeWidth=6;fontSize=14;align=center;fillColor=#397DAA;strokeColor=#FFFFFF;fontColor=#FFFFFF;" parent="1" vertex="1">
          <mxGeometry x="539" y="545" width="115" height="115" as="geometry" />
        </mxCell>
        <mxCell id="60da8b9f42644d3a-23" value="" style="html=1;shadow=0;dashed=0;align=center;verticalAlign=middle;shape=mxgraph.arrows2.stylisedArrow;dy=0.6;dx=40;notch=15;feather=0.4;rounded=0;strokeWidth=1;fontSize=27;strokeColor=none;fillColor=#fff2cc;" parent="1" vertex="1">
          <mxGeometry x="686" y="573" width="100" height="60" as="geometry" />
        </mxCell>
        <mxCell id="60da8b9f42644d3a-24" value="" style="whiteSpace=wrap;html=1;rounded=1;shadow=0;strokeWidth=8;fontSize=20;align=center;fillColor=#FFB001;strokeColor=#FFFFFF;" parent="1" vertex="1">
          <mxGeometry x="876" y="405" width="280" height="430" as="geometry" />
        </mxCell>
        <mxCell id="60da8b9f42644d3a-25" value="CLOSE" style="text;html=1;strokeColor=none;fillColor=none;align=center;verticalAlign=middle;whiteSpace=wrap;rounded=0;shadow=0;fontSize=27;fontColor=#FFFFFF;fontStyle=1" parent="1" vertex="1">
          <mxGeometry x="876" y="425" width="280" height="60" as="geometry" />
        </mxCell>
        <mxCell id="60da8b9f42644d3a-26" value="Email&lt;div&gt;Signals&lt;/div&gt;&lt;div&gt;Workflows&lt;/div&gt;" style="text;html=1;strokeColor=none;fillColor=none;align=center;verticalAlign=middle;whiteSpace=wrap;rounded=0;shadow=0;fontSize=14;fontColor=#FFFFFF;" parent="1" vertex="1">
          <mxGeometry x="876" y="725" width="280" height="90" as="geometry" />
        </mxCell>
        <mxCell id="60da8b9f42644d3a-27" value="" style="line;strokeWidth=2;html=1;rounded=0;shadow=0;fontSize=27;align=center;fillColor=none;strokeColor=#FFFFFF;" parent="1" vertex="1">
          <mxGeometry x="896" y="485" width="240" height="10" as="geometry" />
        </mxCell>
        <mxCell id="60da8b9f42644d3a-28" value="" style="line;strokeWidth=2;html=1;rounded=0;shadow=0;fontSize=27;align=center;fillColor=none;strokeColor=#FFFFFF;" parent="1" vertex="1">
          <mxGeometry x="896" y="705" width="240" height="10" as="geometry" />
        </mxCell>
        <mxCell id="60da8b9f42644d3a-29" value="LEADS" style="ellipse;whiteSpace=wrap;html=1;rounded=0;shadow=0;strokeWidth=6;fontSize=14;align=center;fillColor=#EF9353;strokeColor=#FFFFFF;fontColor=#FFFFFF;" parent="1" vertex="1">
          <mxGeometry x="819" y="545" width="115" height="115" as="geometry" />
        </mxCell>
        <mxCell id="60da8b9f42644d3a-30" value="" style="html=1;shadow=0;dashed=0;align=center;verticalAlign=middle;shape=mxgraph.arrows2.stylisedArrow;dy=0.6;dx=40;notch=15;feather=0.4;rounded=0;strokeWidth=1;fontSize=27;strokeColor=none;fillColor=#fff2cc;" parent="1" vertex="1">
          <mxGeometry x="966" y="573" width="100" height="60" as="geometry" />
        </mxCell>
        <mxCell id="60da8b9f42644d3a-31" value="" style="whiteSpace=wrap;html=1;rounded=1;shadow=0;strokeWidth=8;fontSize=20;align=center;fillColor=#FE9900;strokeColor=#FFFFFF;" parent="1" vertex="1">
          <mxGeometry x="1156" y="405" width="280" height="430" as="geometry" />
        </mxCell>
        <mxCell id="60da8b9f42644d3a-32" value="DELIGHT" style="text;html=1;strokeColor=none;fillColor=none;align=center;verticalAlign=middle;whiteSpace=wrap;rounded=0;shadow=0;fontSize=27;fontColor=#FFFFFF;fontStyle=1" parent="1" vertex="1">
          <mxGeometry x="1156" y="425" width="280" height="60" as="geometry" />
        </mxCell>
        <mxCell id="60da8b9f42644d3a-33" value="Events&lt;div&gt;Social Inbox&lt;/div&gt;&lt;div&gt;Smart Content&lt;/div&gt;" style="text;html=1;strokeColor=none;fillColor=none;align=center;verticalAlign=middle;whiteSpace=wrap;rounded=0;shadow=0;fontSize=14;fontColor=#FFFFFF;" parent="1" vertex="1">
          <mxGeometry x="1156" y="725" width="280" height="90" as="geometry" />
        </mxCell>
        <mxCell id="60da8b9f42644d3a-34" value="" style="line;strokeWidth=2;html=1;rounded=0;shadow=0;fontSize=27;align=center;fillColor=none;strokeColor=#FFFFFF;" parent="1" vertex="1">
          <mxGeometry x="1176" y="485" width="240" height="10" as="geometry" />
        </mxCell>
        <mxCell id="60da8b9f42644d3a-35" value="" style="line;strokeWidth=2;html=1;rounded=0;shadow=0;fontSize=27;align=center;fillColor=none;strokeColor=#FFFFFF;" parent="1" vertex="1">
          <mxGeometry x="1176" y="705" width="240" height="10" as="geometry" />
        </mxCell>
        <mxCell id="60da8b9f42644d3a-36" value="CUSTOMERS" style="ellipse;whiteSpace=wrap;html=1;rounded=0;shadow=0;strokeWidth=6;fontSize=14;align=center;fillColor=#68B85C;strokeColor=#FFFFFF;fontColor=#FFFFFF;" parent="1" vertex="1">
          <mxGeometry x="1099" y="545" width="115" height="115" as="geometry" />
        </mxCell>
        <mxCell id="60da8b9f42644d3a-37" value="" style="html=1;shadow=0;dashed=0;align=center;verticalAlign=middle;shape=mxgraph.arrows2.stylisedArrow;dy=0.6;dx=40;notch=15;feather=0.4;rounded=0;strokeWidth=1;fontSize=27;strokeColor=none;fillColor=#fff2cc;" parent="1" vertex="1">
          <mxGeometry x="1246" y="573" width="100" height="60" as="geometry" />
        </mxCell>
        <mxCell id="60da8b9f42644d3a-38" value="PROMOTERS" style="ellipse;whiteSpace=wrap;html=1;rounded=0;shadow=0;strokeWidth=6;fontSize=14;align=center;fillColor=#BF639A;strokeColor=#FFFFFF;fontColor=#FFFFFF;" parent="1" vertex="1">
          <mxGeometry x="1379" y="545" width="115" height="115" as="geometry" />
        </mxCell>
        <mxCell id="YdRyRiwWPMBmLy31X0gd-1" value="&lt;font color=&quot;#ffffff&quot; size=&quot;1&quot;&gt;&lt;b style=&quot;font-size: 28px&quot;&gt;特点&lt;/b&gt;&lt;/font&gt;" style="ellipse;whiteSpace=wrap;html=1;rounded=0;shadow=0;strokeWidth=6;fontSize=14;align=center;fillColor=#25E8E2;strokeColor=none;gradientColor=#97d077;" parent="1" vertex="1">
          <mxGeometry x="760" y="1520" width="200" height="200" as="geometry" />
        </mxCell>
        <mxCell id="YdRyRiwWPMBmLy31X0gd-3" value="" style="ellipse;whiteSpace=wrap;html=1;rounded=0;shadow=0;strokeWidth=6;fontSize=14;align=center;fillColor=#fa6800;strokeColor=none;fontColor=#000000;" parent="1" vertex="1">
          <mxGeometry x="484" y="1562.5" width="115" height="115" as="geometry" />
        </mxCell>
        <mxCell id="YdRyRiwWPMBmLy31X0gd-7" value="&lt;font style=&quot;font-size: 25px&quot; face=&quot;Times New Roman&quot; color=&quot;#14ccb4&quot;&gt;冗余度&lt;/font&gt;" style="text;strokeColor=none;fillColor=none;html=1;fontSize=24;fontStyle=1;verticalAlign=middle;align=center;" parent="1" vertex="1">
          <mxGeometry x="531" y="1274" width="100" height="40" as="geometry" />
        </mxCell>
        <mxCell id="P2MY6x69WWDnwV6V5oNP-16" value="" style="endArrow=none;html=1;rounded=0;fontFamily=Times New Roman;fontSize=25;fontColor=#14CCB4;strokeColor=#787878;strokeWidth=12;entryX=0;entryY=0.5;entryDx=0;entryDy=0;exitX=1;exitY=0.5;exitDx=0;exitDy=0;" edge="1" parent="1" source="YdRyRiwWPMBmLy31X0gd-3" target="YdRyRiwWPMBmLy31X0gd-1">
          <mxGeometry width="50" height="50" relative="1" as="geometry">
            <mxPoint x="354" y="1860" as="sourcePoint" />
            <mxPoint x="404" y="1810" as="targetPoint" />
          </mxGeometry>
        </mxCell>
        <mxCell id="P2MY6x69WWDnwV6V5oNP-17" value="" style="ellipse;whiteSpace=wrap;html=1;rounded=0;shadow=0;strokeWidth=6;fontSize=14;align=center;fillColor=#d5e8d4;strokeColor=none;" vertex="1" parent="1">
          <mxGeometry x="584" y="1760" width="115" height="115" as="geometry" />
        </mxCell>
        <mxCell id="P2MY6x69WWDnwV6V5oNP-18" value="" style="ellipse;whiteSpace=wrap;html=1;rounded=0;shadow=0;strokeWidth=6;fontSize=14;align=center;fillColor=#e1d5e7;strokeColor=none;" vertex="1" parent="1">
          <mxGeometry x="802.5" y="1870" width="115" height="115" as="geometry" />
        </mxCell>
        <mxCell id="P2MY6x69WWDnwV6V5oNP-19" value="" style="ellipse;whiteSpace=wrap;html=1;rounded=0;shadow=0;strokeWidth=6;fontSize=14;align=center;fillColor=#dae8fc;strokeColor=none;" vertex="1" parent="1">
          <mxGeometry x="1034" y="1760" width="115" height="115" as="geometry" />
        </mxCell>
        <mxCell id="P2MY6x69WWDnwV6V5oNP-20" value="" style="ellipse;whiteSpace=wrap;html=1;rounded=0;shadow=0;strokeWidth=6;fontSize=14;align=center;fillColor=#1ba1e2;strokeColor=none;fontColor=#ffffff;" vertex="1" parent="1">
          <mxGeometry x="1114" y="1560" width="115" height="115" as="geometry" />
        </mxCell>
        <mxCell id="P2MY6x69WWDnwV6V5oNP-21" value="&lt;font color=&quot;#14ccb4&quot; face=&quot;Times New Roman&quot;&gt;&lt;span style=&quot;font-size: 25px&quot;&gt;失效可读写&lt;/span&gt;&lt;/font&gt;" style="text;strokeColor=none;fillColor=none;html=1;fontSize=24;fontStyle=1;verticalAlign=middle;align=center;" vertex="1" parent="1">
          <mxGeometry x="480" y="1839" width="104" height="40" as="geometry" />
        </mxCell>
        <mxCell id="P2MY6x69WWDnwV6V5oNP-24" value="&lt;font color=&quot;#14ccb4&quot; face=&quot;Times New Roman&quot;&gt;&lt;span style=&quot;font-size: 25px&quot;&gt;文件块级重构/快速初始化&lt;/span&gt;&lt;/font&gt;" style="text;strokeColor=none;fillColor=none;html=1;fontSize=24;fontStyle=1;verticalAlign=middle;align=center;" vertex="1" parent="1">
          <mxGeometry x="932" y="1880" width="291" height="40" as="geometry" />
        </mxCell>
        <mxCell id="P2MY6x69WWDnwV6V5oNP-25" value="&lt;font color=&quot;#14ccb4&quot; face=&quot;Times New Roman&quot;&gt;&lt;span style=&quot;font-size: 25px&quot;&gt;设备+硬盘容灾&lt;/span&gt;&lt;/font&gt;" style="text;strokeColor=none;fillColor=none;html=1;fontSize=24;fontStyle=1;verticalAlign=middle;align=center;" vertex="1" parent="1">
          <mxGeometry x="1156" y="1720" width="154" height="40" as="geometry" />
        </mxCell>
        <mxCell id="P2MY6x69WWDnwV6V5oNP-26" value="&lt;font color=&quot;#787878&quot; style=&quot;font-size: 22px&quot;&gt;只针对实际文件重构&lt;br&gt;已删除文件无需重构&lt;br&gt;&lt;/font&gt;&lt;span style=&quot;color: rgb(120 , 120 , 120) ; font-size: 22px&quot;&gt;初始创建无需同步直接使用&lt;/span&gt;&lt;font color=&quot;#787878&quot; style=&quot;font-size: 22px&quot;&gt;&lt;br&gt;&lt;/font&gt;" style="text;strokeColor=none;fillColor=none;html=1;fontSize=24;fontStyle=1;verticalAlign=middle;align=center;shadow=0;fontFamily=Times New Roman;fontColor=#14CCB4;" vertex="1" parent="1">
          <mxGeometry x="950" y="1920" width="270" height="90" as="geometry" />
        </mxCell>
        <mxCell id="P2MY6x69WWDnwV6V5oNP-27" value="&lt;font color=&quot;#14ccb4&quot; face=&quot;Times New Roman&quot;&gt;&lt;span style=&quot;font-size: 25px&quot;&gt;快速重构&lt;/span&gt;&lt;/font&gt;" style="text;strokeColor=none;fillColor=none;html=1;fontSize=24;fontStyle=1;verticalAlign=middle;align=center;" vertex="1" parent="1">
          <mxGeometry x="1246" y="1480" width="154" height="40" as="geometry" />
        </mxCell>
        <mxCell id="P2MY6x69WWDnwV6V5oNP-28" value="" style="ellipse;whiteSpace=wrap;html=1;rounded=0;shadow=0;strokeWidth=6;fontSize=14;align=center;fillColor=#e3c800;strokeColor=none;fontColor=#000000;gradientColor=none;" vertex="1" parent="1">
          <mxGeometry x="1041" y="1360" width="115" height="115" as="geometry" />
        </mxCell>
        <mxCell id="P2MY6x69WWDnwV6V5oNP-29" value="&lt;font color=&quot;#14ccb4&quot; face=&quot;Times New Roman&quot;&gt;&lt;span style=&quot;font-size: 25px&quot;&gt;虚拟存储池&lt;/span&gt;&lt;/font&gt;" style="text;strokeColor=none;fillColor=none;html=1;fontSize=24;fontStyle=1;verticalAlign=middle;align=center;" vertex="1" parent="1">
          <mxGeometry x="1192" y="1239" width="154" height="40" as="geometry" />
        </mxCell>
        <mxCell id="P2MY6x69WWDnwV6V5oNP-30" value="&lt;font color=&quot;#787878&quot; style=&quot;font-size: 22px&quot;&gt;多设备数据全局共享&lt;br style=&quot;font-size: 22px&quot;&gt;虚拟池方便实现视频通道的差异化&lt;br&gt;冗余策略、重构策略、配额等&lt;br style=&quot;font-size: 22px&quot;&gt;&lt;/font&gt;" style="text;strokeColor=none;fillColor=none;html=1;fontSize=22;fontStyle=1;verticalAlign=middle;align=center;shadow=0;fontFamily=Times New Roman;fontColor=#14CCB4;" vertex="1" parent="1">
          <mxGeometry x="1119" y="1279" width="320" height="80" as="geometry" />
        </mxCell>
        <mxCell id="P2MY6x69WWDnwV6V5oNP-31" value="" style="ellipse;whiteSpace=wrap;html=1;rounded=0;shadow=0;strokeWidth=6;fontSize=14;align=center;fillColor=#fad7ac;strokeColor=none;gradientColor=none;" vertex="1" parent="1">
          <mxGeometry x="599" y="1360" width="115" height="115" as="geometry" />
        </mxCell>
        <mxCell id="P2MY6x69WWDnwV6V5oNP-32" value="&lt;font color=&quot;#14ccb4&quot; face=&quot;Times New Roman&quot;&gt;&lt;span style=&quot;font-size: 25px&quot;&gt;失效恢复&lt;/span&gt;&lt;/font&gt;" style="text;strokeColor=none;fillColor=none;html=1;fontSize=24;fontStyle=1;verticalAlign=middle;align=center;" vertex="1" parent="1">
          <mxGeometry x="370" y="1480" width="154" height="40" as="geometry" />
        </mxCell>
        <mxCell id="P2MY6x69WWDnwV6V5oNP-33" value="&lt;font color=&quot;#787878&quot; style=&quot;font-size: 22px&quot;&gt;多盘多设备同时参与重构&lt;br&gt;突破单盘重构瓶颈上限&lt;br&gt;&lt;/font&gt;" style="text;strokeColor=none;fillColor=none;html=1;fontSize=24;fontStyle=1;verticalAlign=middle;align=center;shadow=0;fontFamily=Times New Roman;fontColor=#14CCB4;" vertex="1" parent="1">
          <mxGeometry x="1192" y="1520" width="258" height="50" as="geometry" />
        </mxCell>
        <mxCell id="P2MY6x69WWDnwV6V5oNP-34" value="" style="ellipse;whiteSpace=wrap;html=1;rounded=0;shadow=0;strokeWidth=6;fontSize=14;align=center;fillColor=#f8cecc;strokeColor=none;" vertex="1" parent="1">
          <mxGeometry x="802.5" y="1282.5" width="115" height="115" as="geometry" />
        </mxCell>
        <mxCell id="P2MY6x69WWDnwV6V5oNP-36" value="&lt;font color=&quot;#14ccb4&quot; face=&quot;Times New Roman&quot;&gt;&lt;span style=&quot;font-size: 25px&quot;&gt;多功能综合&lt;/span&gt;&lt;/font&gt;" style="text;strokeColor=none;fillColor=none;html=1;fontSize=24;fontStyle=1;verticalAlign=middle;align=center;" vertex="1" parent="1">
          <mxGeometry x="776" y="1189" width="150" height="40" as="geometry" />
        </mxCell>
        <mxCell id="P2MY6x69WWDnwV6V5oNP-37" value="&lt;font color=&quot;#787878&quot; style=&quot;font-size: 22px&quot;&gt;文件系统、raid2.0、&lt;br&gt;网络raid、虚拟存储池之综合&lt;br&gt;&lt;/font&gt;" style="text;strokeColor=none;fillColor=none;html=1;fontSize=24;fontStyle=1;verticalAlign=middle;align=center;shadow=0;fontFamily=Times New Roman;fontColor=#14CCB4;" vertex="1" parent="1">
          <mxGeometry x="701" y="1229" width="300" height="50" as="geometry" />
        </mxCell>
        <mxCell id="P2MY6x69WWDnwV6V5oNP-38" value="&lt;font color=&quot;#787878&quot; style=&quot;font-size: 22px&quot;&gt;支持多副本和N+M&lt;br&gt;的纠删码冗余&lt;br&gt;&lt;/font&gt;" style="text;strokeColor=none;fillColor=none;html=1;fontSize=24;fontStyle=1;verticalAlign=middle;align=center;shadow=0;fontFamily=Times New Roman;fontColor=#14CCB4;" vertex="1" parent="1">
          <mxGeometry x="470" y="1314" width="214" height="50" as="geometry" />
        </mxCell>
        <mxCell id="P2MY6x69WWDnwV6V5oNP-43" value="&lt;font color=&quot;#787878&quot; style=&quot;font-size: 22px&quot;&gt;灵活支持设备级和&lt;br&gt;硬盘级容灾模式&lt;br&gt;&lt;/font&gt;" style="text;strokeColor=none;fillColor=none;html=1;fontSize=24;fontStyle=1;verticalAlign=middle;align=center;shadow=0;fontFamily=Times New Roman;fontColor=#14CCB4;" vertex="1" parent="1">
          <mxGeometry x="1149" y="1760" width="171" height="50" as="geometry" />
        </mxCell>
        <mxCell id="P2MY6x69WWDnwV6V5oNP-44" value="" style="endArrow=none;html=1;rounded=0;fontFamily=Times New Roman;fontSize=22;fontColor=#787878;strokeColor=#787878;strokeWidth=12;entryX=1;entryY=1;entryDx=0;entryDy=0;exitX=0;exitY=0;exitDx=0;exitDy=0;" edge="1" parent="1" source="YdRyRiwWPMBmLy31X0gd-1" target="P2MY6x69WWDnwV6V5oNP-31">
          <mxGeometry width="50" height="50" relative="1" as="geometry">
            <mxPoint x="770" y="1540" as="sourcePoint" />
            <mxPoint x="820" y="1490" as="targetPoint" />
          </mxGeometry>
        </mxCell>
        <mxCell id="P2MY6x69WWDnwV6V5oNP-45" value="" style="endArrow=none;html=1;rounded=0;fontFamily=Times New Roman;fontSize=22;fontColor=#787878;strokeColor=#787878;strokeWidth=12;entryX=0.5;entryY=1;entryDx=0;entryDy=0;exitX=0.5;exitY=0;exitDx=0;exitDy=0;" edge="1" parent="1" source="YdRyRiwWPMBmLy31X0gd-1" target="P2MY6x69WWDnwV6V5oNP-34">
          <mxGeometry width="50" height="50" relative="1" as="geometry">
            <mxPoint x="930" y="1520" as="sourcePoint" />
            <mxPoint x="980" y="1470" as="targetPoint" />
          </mxGeometry>
        </mxCell>
        <mxCell id="P2MY6x69WWDnwV6V5oNP-46" value="" style="endArrow=none;html=1;rounded=0;fontFamily=Times New Roman;fontSize=22;fontColor=#787878;strokeColor=#787878;strokeWidth=12;entryX=0;entryY=1;entryDx=0;entryDy=0;exitX=1;exitY=0;exitDx=0;exitDy=0;" edge="1" parent="1" source="YdRyRiwWPMBmLy31X0gd-1" target="P2MY6x69WWDnwV6V5oNP-28">
          <mxGeometry width="50" height="50" relative="1" as="geometry">
            <mxPoint x="1000" y="1590" as="sourcePoint" />
            <mxPoint x="1050" y="1540" as="targetPoint" />
          </mxGeometry>
        </mxCell>
        <mxCell id="P2MY6x69WWDnwV6V5oNP-47" value="" style="endArrow=none;html=1;rounded=0;fontFamily=Times New Roman;fontSize=22;fontColor=#787878;strokeColor=#787878;strokeWidth=12;exitX=1;exitY=0.5;exitDx=0;exitDy=0;entryX=0;entryY=0.5;entryDx=0;entryDy=0;" edge="1" parent="1" source="YdRyRiwWPMBmLy31X0gd-1" target="P2MY6x69WWDnwV6V5oNP-20">
          <mxGeometry width="50" height="50" relative="1" as="geometry">
            <mxPoint x="1560" y="1780" as="sourcePoint" />
            <mxPoint x="1110" y="1620" as="targetPoint" />
          </mxGeometry>
        </mxCell>
        <mxCell id="P2MY6x69WWDnwV6V5oNP-48" value="" style="endArrow=none;html=1;rounded=0;fontFamily=Times New Roman;fontSize=22;fontColor=#787878;strokeColor=#787878;strokeWidth=12;entryX=0;entryY=0;entryDx=0;entryDy=0;exitX=1;exitY=1;exitDx=0;exitDy=0;" edge="1" parent="1" source="YdRyRiwWPMBmLy31X0gd-1" target="P2MY6x69WWDnwV6V5oNP-19">
          <mxGeometry width="50" height="50" relative="1" as="geometry">
            <mxPoint x="1310" y="1910" as="sourcePoint" />
            <mxPoint x="1360" y="1860" as="targetPoint" />
          </mxGeometry>
        </mxCell>
        <mxCell id="P2MY6x69WWDnwV6V5oNP-49" value="" style="endArrow=none;html=1;rounded=0;fontFamily=Times New Roman;fontSize=22;fontColor=#787878;strokeColor=#787878;strokeWidth=12;entryX=0.5;entryY=1;entryDx=0;entryDy=0;exitX=0.5;exitY=0;exitDx=0;exitDy=0;" edge="1" parent="1" source="P2MY6x69WWDnwV6V5oNP-18" target="YdRyRiwWPMBmLy31X0gd-1">
          <mxGeometry width="50" height="50" relative="1" as="geometry">
            <mxPoint x="870" y="1830" as="sourcePoint" />
            <mxPoint x="920" y="1780" as="targetPoint" />
          </mxGeometry>
        </mxCell>
        <mxCell id="P2MY6x69WWDnwV6V5oNP-50" value="" style="endArrow=none;html=1;rounded=0;fontFamily=Times New Roman;fontSize=22;fontColor=#787878;strokeColor=#787878;strokeWidth=12;entryX=0;entryY=1;entryDx=0;entryDy=0;exitX=1;exitY=0;exitDx=0;exitDy=0;" edge="1" parent="1" source="P2MY6x69WWDnwV6V5oNP-17" target="YdRyRiwWPMBmLy31X0gd-1">
          <mxGeometry width="50" height="50" relative="1" as="geometry">
            <mxPoint x="750" y="1820" as="sourcePoint" />
            <mxPoint x="800" y="1770" as="targetPoint" />
          </mxGeometry>
        </mxCell>
        <mxCell id="P2MY6x69WWDnwV6V5oNP-56" value="&lt;font color=&quot;#787878&quot; style=&quot;font-size: 22px&quot;&gt;硬盘故障超过冗余导致的&lt;br&gt;文件失效不影响新数据读写&lt;br&gt;&lt;/font&gt;" style="text;strokeColor=none;fillColor=none;html=1;fontSize=24;fontStyle=1;verticalAlign=middle;align=center;shadow=0;fontFamily=Times New Roman;fontColor=#14CCB4;" vertex="1" parent="1">
          <mxGeometry x="399" y="1880" width="260" height="50" as="geometry" />
        </mxCell>
        <mxCell id="P2MY6x69WWDnwV6V5oNP-58" value="&lt;font color=&quot;#787878&quot; style=&quot;font-size: 22px&quot;&gt;掉盘导致的部分文件失效&lt;br&gt;在硬盘上线后可自动恢复&lt;br&gt;&lt;/font&gt;" style="text;strokeColor=none;fillColor=none;html=1;fontSize=24;fontStyle=1;verticalAlign=middle;align=center;shadow=0;fontFamily=Times New Roman;fontColor=#14CCB4;" vertex="1" parent="1">
          <mxGeometry x="349" y="1520" width="214" height="50" as="geometry" />
        </mxCell>
      </root>
    </mxGraphModel>
  </diagram>
</mxfile>
